{
  "accessors": [
    {
      "bufferView": 0,
      "componentType": 5126,
      "count": 299952,
      "max": [
        1.65450298786163,
        2.64228296279907,
        -2.90641212463379
      ],
      "min": [
        -1.21601402759552,
        -1.54952800273895,
        -5.95640087127686
      ],
      "normalized": false,
      "type": "VEC3"
    },
    {
      "bufferView": 1,
      "componentType": 5126,
      "count": 299952,
      "max": [
        0.999999403953552,
        0.999863922595978,
        0.999954640865326
      ],
      "min": [
        -0.999949097633362,
        -0.999924957752228,
        -0.999245524406433
      ],
      "normalized": false,
      "type": "VEC3"
    },
    {
      "bufferView": 2,
      "componentType": 5126,
      "count": 299952,
      "max": [
        0.999441981315613,
        0.984368979930878
      ],
      "min": [
        0.000621000013779849,
        0.000602006912231445
      ],
      "normalized": false,
      "type": "VEC2"
    },
    {
      "bufferView": 3,
      "componentType": 5125,
      "count": 299952,
      "max": [
        65535.0
      ],
      "min": [
        0.0
      ],
      "normalized": false,
      "type": "SCALAR"
    }
  ],
  "asset": {
    "generator": "Huawei RSDZ Library, version: 20210318-B049",
    "version": "2.0"
  },
  "bufferViews": [
    {
      "buffer": 0,
      "byteLength": 3599424,
      "byteOffset": 0,
      "target": 34962
    },
    {
      "buffer": 0,
      "byteLength": 3599424,
      "byteOffset": 3599424,
      "target": 34962
    },
    {
      "buffer": 0,
      "byteLength": 2399616,
      "byteOffset": 7198848,
      "target": 34962
    },
    {
      "buffer": 0,
      "byteLength": 1199808,
      "byteOffset": 9598464,
      "target": 34963
    },
    {
      "buffer": 0,
      "byteLength": 1700452,
      "byteOffset": 10798272,
      "name": "ImageBufferView"
    }
  ],
  "buffers": [
    {
      "byteLength": 12498724,
      "uri": "out.bin"
    }
  ],
  "images": [
    {
      "bufferView": 4,
      "mimeType": "image/jpeg"
    }
  ],
  "materials": [
    {
      "name": "material",
      "pbrMetallicRoughness": {
        "baseColorTexture": {
          "index": 0
        },
        "metallicFactor": 0.0
      }
    }
  ],
  "meshes": [
    {
      "name": "defaultobject",
      "primitives": [
        {
          "attributes": {
            "NORMAL": 1,
            "POSITION": 0,
            "TEXCOORD_0": 2
          },
          "indices": 3,
          "material": 0,
          "mode": 4
        }
      ]
    }
  ],
  "nodes": [
    {
      "children": [
        1
      ],
      "name": "mesh_texture.obj"
    },
    {
      "mesh": 0,
      "name": "defaultobject"
    }
  ],
  "samplers": [
    {
      "magFilter": 9729,
      "minFilter": 9986,
      "wrapR": 10497,
      "wrapS": 10497,
      "wrapT": 10497
    }
  ],
  "scene": 0,
  "scenes": [
    {
      "nodes": [
        0
      ]
    }
  ],
  "textures": [
    {
      "sampler": 0,
      "source": 0
    }
  ]
}
